<svg xmlns="http://www.w3.org/2000/svg" version="1.1" xmlns:xlink="http://www.w3.org/1999/xlink" xmlns:svgjs="http://svgjs.com/svgjs" width="1400" height="900" preserveAspectRatio="none" viewBox="0 0 1400 900"><g mask="url(&quot;#SvgjsMask1070&quot;)" fill="none"><rect width="1400" height="900" x="0" y="0" fill="rgba(48, 47, 55, 1)"></rect><path d="M1192 853L1191 1348" stroke-width="8" stroke="url(#SvgjsLinearGradient1071)" stroke-linecap="round" class="Down"></path><path d="M556 224L555 -400" stroke-width="6" stroke="url(#SvgjsLinearGradient1071)" stroke-linecap="round" class="Down"></path><path d="M998 769L997 1157" stroke-width="8" stroke="url(#SvgjsLinearGradient1072)" stroke-linecap="round" class="Up"></path><path d="M996 213L995 515" stroke-width="6" stroke="url(#SvgjsLinearGradient1072)" stroke-linecap="round" class="Up"></path><path d="M93 809L92 1463" stroke-width="8" stroke="url(#SvgjsLinearGradient1072)" stroke-linecap="round" class="Up"></path><path d="M464 777L463 1112" stroke-width="8" stroke="url(#SvgjsLinearGradient1071)" stroke-linecap="round" class="Down"></path><path d="M257 839L256 1334" stroke-width="10" stroke="url(#SvgjsLinearGradient1072)" stroke-linecap="round" class="Up"></path><path d="M723 665L722 394" stroke-width="6" stroke="url(#SvgjsLinearGradient1071)" stroke-linecap="round" class="Down"></path><path d="M950 854L949 1190" stroke-width="8" stroke="url(#SvgjsLinearGradient1072)" stroke-linecap="round" class="Up"></path><path d="M1002 168L1001 -458" stroke-width="10" stroke="url(#SvgjsLinearGradient1072)" stroke-linecap="round" class="Up"></path><path d="M1124 146L1123 -421" stroke-width="8" stroke="url(#SvgjsLinearGradient1072)" stroke-linecap="round" class="Up"></path><path d="M682 713L681 411" stroke-width="6" stroke="url(#SvgjsLinearGradient1072)" stroke-linecap="round" class="Up"></path><path d="M803 707L802 148" stroke-width="8" stroke="url(#SvgjsLinearGradient1072)" stroke-linecap="round" class="Up"></path><path d="M375 694L374 268" stroke-width="8" stroke="url(#SvgjsLinearGradient1071)" stroke-linecap="round" class="Down"></path><path d="M52 105L51 437" stroke-width="6" stroke="url(#SvgjsLinearGradient1072)" stroke-linecap="round" class="Up"></path><path d="M367 712L366 1245" stroke-width="10" stroke="url(#SvgjsLinearGradient1071)" stroke-linecap="round" class="Down"></path><path d="M397 744L396 71" stroke-width="10" stroke="url(#SvgjsLinearGradient1072)" stroke-linecap="round" class="Up"></path><path d="M399 250L398 501" stroke-width="10" stroke="url(#SvgjsLinearGradient1072)" stroke-linecap="round" class="Up"></path><path d="M174 886L173 302" stroke-width="10" stroke="url(#SvgjsLinearGradient1071)" stroke-linecap="round" class="Down"></path><path d="M467 155L466 669" stroke-width="6" stroke="url(#SvgjsLinearGradient1071)" stroke-linecap="round" class="Down"></path><path d="M350 746L349 302" stroke-width="8" stroke="url(#SvgjsLinearGradient1072)" stroke-linecap="round" class="Up"></path><path d="M232 766L231 456" stroke-width="8" stroke="url(#SvgjsLinearGradient1072)" stroke-linecap="round" class="Up"></path><path d="M102 287L101 -153" stroke-width="8" stroke="url(#SvgjsLinearGradient1072)" stroke-linecap="round" class="Up"></path><path d="M174 699L173 389" stroke-width="6" stroke="url(#SvgjsLinearGradient1072)" stroke-linecap="round" class="Up"></path><path d="M1018 346L1017 968" stroke-width="8" stroke="url(#SvgjsLinearGradient1071)" stroke-linecap="round" class="Down"></path><path d="M1098 114L1097 693" stroke-width="6" stroke="url(#SvgjsLinearGradient1072)" stroke-linecap="round" class="Up"></path><path d="M867 694L866 165" stroke-width="10" stroke="url(#SvgjsLinearGradient1071)" stroke-linecap="round" class="Down"></path><path d="M1355 108L1354 695" stroke-width="8" stroke="url(#SvgjsLinearGradient1072)" stroke-linecap="round" class="Up"></path><path d="M337 825L336 387" stroke-width="6" stroke="url(#SvgjsLinearGradient1072)" stroke-linecap="round" class="Up"></path><path d="M971 486L970 1146" stroke-width="8" stroke="url(#SvgjsLinearGradient1071)" stroke-linecap="round" class="Down"></path><path d="M78 779L77 393" stroke-width="6" stroke="url(#SvgjsLinearGradient1071)" stroke-linecap="round" class="Down"></path><path d="M231 660L230 252" stroke-width="10" stroke="url(#SvgjsLinearGradient1071)" stroke-linecap="round" class="Down"></path><path d="M3 834L2 1157" stroke-width="6" stroke="url(#SvgjsLinearGradient1072)" stroke-linecap="round" class="Up"></path><path d="M259 566L258 1212" stroke-width="10" stroke="url(#SvgjsLinearGradient1071)" stroke-linecap="round" class="Down"></path><path d="M304 84L303 493" stroke-width="6" stroke="url(#SvgjsLinearGradient1072)" stroke-linecap="round" class="Up"></path></g><defs><mask id="SvgjsMask1070"><rect width="1400" height="900" fill="#ffffff"></rect></mask><linearGradient x1="0%" y1="0%" x2="0%" y2="100%" id="SvgjsLinearGradient1071"><stop stop-color="rgba(49, 83, 7, 0)" offset="0"></stop><stop stop-color="rgba(49, 83, 7, 0.5019607843137255)" offset="1"></stop></linearGradient><linearGradient x1="0%" y1="100%" x2="0%" y2="0%" id="SvgjsLinearGradient1072"><stop stop-color="rgba(49, 83, 7, 0)" offset="0"></stop><stop stop-color="rgba(49, 83, 7, 0.5019607843137255)" offset="1"></stop></linearGradient></defs></svg>