<svg width="773.11417" height="610.8036" xmlns="http://www.w3.org/2000/svg" data-name="Layer 1">

 <g>
  <title>Layer 1</title>
  <rect fill="#f0f0f0" height="220.00561" width="463.64082" y="12.71102" x="309.47335" data-name="Rectangle 62" id="e81a7c33-c795-457d-8abc-c4a3c260cd56"/>
  <rect fill="#302f37" height="183.55756" width="437.12554" y="31.57689" x="322.73131" data-name="Rectangle 75" id="be98c830-918a-42d1-b1b0-0085d5874e90"/>
  <rect fill="#78b512" height="19.69684" width="463.64082" x="309.27566" data-name="Rectangle 80" id="ea07d9fd-7a34-4098-acd7-056fd1871281"/>
  <circle fill="#fff" r="3.65074" cy="11.58218" cx="323.91285" data-name="Ellipse 90" id="b9ed5a45-8896-4ed9-86b4-15f853c9a185"/>
  <circle fill="#fff" r="3.65074" cy="11.58218" cx="337.76985" data-name="Ellipse 91" id="a9233a38-f8ba-48e0-88f3-496fd4836d40"/>
  <circle fill="#fff" r="3.65074" cy="11.58218" cx="351.62748" data-name="Ellipse 92" id="aa82180f-a6a9-4f5f-82fc-e73106f4ad92"/>
  <rect id="svg_1" fill="#f0f0f0" height="124.15499" width="72.6761" y="61.27926" x="584.2717"/>
  <rect id="svg_2" fill="#78b512" height="34.17507" width="146.59028" y="61.27709" x="425.64037"/>
  <rect id="svg_3" fill="#f0f0f0" height="36.77064" width="146.59028" y="104.96926" x="425.64037"/>
  <rect id="svg_4" fill="#f0f0f0" height="34.17507" width="146.59028" y="151.25701" x="425.64037"/>
  <path id="svg_5" fill="#7f3f00" d="m221.20298,367.10132a17.86664,17.86664 0 0 0 -19.78976,-17.86231a17.20233,17.20233 0 0 0 -2.34789,0.43277l-60.46411,-51.82742l3.61319,-19.47549l-29.8018,-9.65812l-8.9854,31.2107a18.10285,18.10285 0 0 0 7.6802,20.20409l74.38136,47.04492a17.0684,17.0684 0 0 0 0.09142,1.75175a17.86684,17.86684 0 0 0 21.691,15.50179a17.38164,17.38164 0 0 0 2.10507,-0.60774a17.92013,17.92013 0 0 0 11.82672,-16.71494z"/>
  <path id="svg_6" fill="#7f7f7f" d="m70.88179,427.20911l77.958,0c0,2.24085 80.34537,4.05949 80.34537,4.05949a20.88352,20.88352 0 0 1 3.426,3.24759a20.15185,20.15185 0 0 1 4.70964,12.99037l0,3.24759a20.30493,20.30493 0 0 1 -20.29742,20.29744l-146.14159,0a20.31509,20.31509 0 0 1 -20.29744,-20.29744l0,-3.24759a20.32567,20.32567 0 0 1 20.29744,-20.29745z"/>
  <rect id="svg_7" fill="#7f7f7f" height="136.39882" width="21.10934" y="470.24525" x="134.57286"/>
  <path id="svg_8" fill="#7f7f7f" d="m215.76263,608.34079c0,2.5538 -31.9879,0.98788 -71.447,0.98788s-71.447,1.566 -71.447,-0.98788s31.9879,-22.80584 71.447,-22.80584s71.447,20.25194 71.447,22.80584z"/>
  <polygon id="svg_9" fill="#7f3f00" points="196.707 589.916 216.613 589.914 226.084 538.282 196.703 538.284 196.707 589.916"/>
  <path id="svg_10" fill="#181818" d="m191.62918,609.21236l64.18948,-0.00238l0,-0.81189a24.98376,24.98376 0 0 0 -24.9835,-24.98409l-0.00258,0l-39.20459,0.00158l0.00119,25.79678z"/>
  <path id="svg_11" fill="#f6f6f6" d="m226.48108,557.89769l39.68705,-88.99646a32.61556,32.61556 0 0 0 -14.31961,-41.86823l-86.083,-46.16083l-39.2815,-3.34115l-36.2345,-3.29358l-0.26125,0.44242c-0.3342,0.56453 -8.12493,14.0211 -2.85869,28.77639c3.99457,11.19214 14.385,19.93431 30.88264,25.9839c38.50726,14.11941 82.99077,26.187 100.32844,30.719a5.60369,5.60369 0 0 1 3.5905,2.8575a5.68054,5.68054 0 0 1 0.31874,4.54472l-36.87071,82.83742a7.307,7.307 0 0 0 6.18557,9.79034l27.55021,2.006q0.35085,0.0333 0.69852,0.0333a7.3021,7.3021 0 0 0 6.66759,-4.33074z"/>
  <polygon id="svg_12" fill="#7f3f00" points="183.716 589.916 203.622 589.914 213.094 538.282 183.713 538.284 183.716 589.916"/>
  <path id="svg_13" fill="#0c0c0c" d="m178.63882,609.21236l64.18947,-0.00238l0,-0.81189a24.98375,24.98375 0 0 0 -24.98349,-24.98409l-0.00258,0l-39.20459,0.00158l0.00119,25.79678z"/>
  <path id="svg_14" fill="#f0f0f0" d="m211.86696,562.76908l39.68705,-88.99646a32.61558,32.61558 0 0 0 -14.31961,-41.86824l-86.083,-46.16082l-39.2815,-3.34115l-28.38066,-2.46184l0.00388,-0.38932c-0.33419,0.56452 -8.12492,14.02109 -2.85868,28.77638c3.99457,11.19214 6.266,19.93431 22.76366,25.9839c38.50726,14.11941 82.99077,26.187 100.32844,30.719a5.60372,5.60372 0 0 1 3.5905,2.8575a5.68056,5.68056 0 0 1 0.31874,4.54473l-36.8707,82.83736a7.307,7.307 0 0 0 6.18557,9.79035l27.55021,2.006q0.35085,0.0333 0.69852,0.0333a7.30209,7.30209 0 0 0 6.66758,-4.33069z"/>
  <path id="svg_15" fill="#0f0f0f" d="m137.07453,381.56436c1.90279,-1.346 29.22832,12.99037 34.09971,1.6238c-22.73314,-56.83284 -7.06762,-81.37433 -20.99278,-113.96521a40.58128,40.58128 0 0 0 -26.90124,-23.02491l-36.12866,-1.8236l-0.18712,0.09039a42.22708,42.22708 0 0 0 -23.08923,44.79783c0.12853,35.46886 21.35037,62.52084 13.92991,88.24705a8.31687,8.31687 0 0 0 0.78574,6.46823a7.93084,7.93084 0 0 0 5.05929,3.74947l47.70464,-6.36356a8.061,8.061 0 0 0 6.52214,-1.26225l-0.8024,1.46276z"/>
  <circle id="svg_16" fill="#7f3f00" r="39.88209" cy="190.99814" cx="99.20882"/>
  <path id="svg_17" fill="#0f0f0f" d="m86.50542,227.60484c2.119,0.92721 6.45835,-15.95756 4.51455,-19.33465c-2.89075,-5.02229 -2.71986,-4.98621 -4.63887,-8.30894s-2.34839,-7.87074 0.13667,-10.79436s8.23583,-2.53577 9.37,1.12986c-0.72958,-6.96252 6.15725,-12.55932 12.97892,-14.13211s14.01732,-0.5963 20.87662,-1.99592c7.96055,-1.62432 16.2431,-8.29715 13.067,-17.051a12.32977,12.32977 0 0 0 -2.40493,-3.95245c-3.66966,-4.126 -8.80288,-5.88779 -13.82183,-7.59131c-10.4411,-3.54387 -21.16788,-7.13225 -32.18706,-6.741c-18.10539,0.64277 -35.21955,13.15863 -41.31952,30.2176a42.47288,42.47288 0 0 0 -1.75928,6.53634c-3.7822,20.33678 8.02752,40.39668 27.20868,48.1409l7.97905,3.87704z"/>
  <path id="svg_18" fill="#3f3d56" d="m295.65429,291.73835l4.57346,27.15606a1.67186,1.67186 0 0 1 -0.09645,0.89874l-35.88045,89.65335a1.67163,1.67163 0 0 1 -3.22212,-0.55063l-1.51993,-36.02744a1.67151,1.67151 0 0 1 0.12149,-0.69977l32.82692,-80.782a1.67164,1.67164 0 0 1 3.19708,0.35168l0,0.00001z"/>
  <polygon id="svg_19" fill="#78b512" points="293.114 293.823 297.46 317.153 265.619 398.964 261.485 372.647 293.114 293.823"/>
  <path id="svg_20" fill="#3f3d56" d="m153.80422,409.02947c0.78342,3.05836 103.64017,6.36858 104.70682,5.44356a21.67414,21.67414 0 0 0 2.47407,-3.82766c1.07778,-1.92515 2.07587,-3.856 2.07587,-3.856l-1.6905,-32.52915l-101.32132,-10.82783s-4.48257,27.14579 -5.88985,39.617a29.957,29.957 0 0 0 -0.35509,5.98008z"/>
  <polygon id="svg_21" opacity="0.1" points="248.114 377.702 248.123 405.727 203.309 402.541 205.292 374.657 248.114 377.702"/>
  <polygon id="svg_22" opacity="0.1" points="189.717 382.557 189.988 382.523 187.872 394.437 162.975 392.667 163.825 380.716 189.717 382.557"/>
  <path id="svg_23" opacity="0.1" d="m153.80422,409.02947c0.78342,3.05836 103.64017,6.36858 104.70682,5.44356a21.67414,21.67414 0 0 0 2.47407,-3.82766l-106.8258,-7.596a29.957,29.957 0 0 0 -0.35509,5.9801z"/>
  <path id="svg_24" fill="#7f3f00" d="m112.50341,360.4531l86.76393,16.192a17.07827,17.07827 0 0 0 0.73363,1.59338a17.90571,17.90571 0 0 0 11.49146,8.97255a17.72,17.72 0 0 0 14.39865,-2.60867a17.8638,17.8638 0 0 0 -18.475,-30.51175a17.16787,17.16787 0 0 0 -2.02,1.27194l-75.361,-25.744l-3.85719,-19.42893l-31.25945,2.06817l3.239,32.56972a17.76744,17.76744 0 0 0 14.34597,15.62559z"/>
  <path id="svg_25" fill="#0f0f0f" d="m93.85954,326.78489l45.42218,-14.92881l-10.59552,-30.42282a18.135,18.135 0 0 0 -20.10734,-11.92359l0,0a18.13492,18.13492 0 0 0 -15.15252,18.08864l0.4332,39.18658z"/>
  <path id="svg_26" fill="#cbcbcb" d="m381.99999,610.80359l-381,0a1,1 0 1 1 0,-2l381,0a1,1 0 0 1 0,2z"/>
  <path id="svg_27" fill="#315307" d="m530.20696,579.29718c18.27372,9.45731 26.39842,30.0488 26.39842,30.0488s-21.50286,5.25812 -39.77654,-4.19918s-26.39843,-30.04881 -26.39843,-30.04881s21.50282,-5.25813 39.77655,4.19919z"/>
  <path id="svg_28" fill="#315307" d="m524.36324,586.10946c10.90465,17.44872 32.08594,23.881 32.08594,23.881s3.50132,-21.85773 -7.40333,-39.30649s-32.08594,-23.881 -32.08594,-23.881s-3.50138,21.85782 7.40333,39.30649z"/>
  <path id="svg_29" fill="#cbcbcb" d="m589.99999,610.40706l-114,0a1,1 0 0 1 0,-2l114,0a1,1 0 0 1 0,2z"/>
 </g>
</svg>